<svg xmlns="http://www.w3.org/2000/svg" viewBox="0 0 24 24" width="24" height="24" color="#000000" fill="none">
    <defs />
    <path fill="#141B34" d="M13.852,6.287 L13.941,6.337 C15.573,7.265 16.857,7.994 17.771,8.662 C18.691,9.334 19.372,10.037 19.616,10.963 C19.795,11.643 19.795,12.357 19.616,13.037 C19.372,13.963 18.691,14.666 17.771,15.339 C16.857,16.006 15.573,16.735 13.941,17.663 L13.852,17.713 C12.275,18.61 11.033,19.315 10.023,19.744 C9.005,20.177 8.077,20.397 7.175,20.141 C6.513,19.953 5.909,19.597 5.424,19.107 C4.764,18.441 4.5,17.522 4.374,16.415 C4.25,15.317 4.25,13.879 4.25,12.05 L4.25,11.95 C4.25,10.121 4.25,8.683 4.374,7.585 C4.5,6.478 4.764,5.559 5.424,4.893 C5.909,4.403 6.513,4.047 7.175,3.859 C8.077,3.603 9.005,3.823 10.023,4.256 C11.033,4.685 12.275,5.391 13.852,6.287 Z M9.436,5.636 C8.514,5.244 7.984,5.189 7.584,5.302 C7.171,5.419 6.794,5.642 6.489,5.949 C6.192,6.249 5.979,6.747 5.865,7.753 C5.751,8.757 5.75,10.11 5.75,12 C5.75,13.89 5.751,15.243 5.865,16.247 C5.979,17.253 6.192,17.751 6.489,18.051 C6.794,18.358 7.171,18.581 7.584,18.698 C7.984,18.811 8.514,18.756 9.436,18.364 C10.357,17.972 11.524,17.311 13.155,16.384 C14.842,15.426 16.05,14.738 16.886,14.127 C17.724,13.515 18.056,13.072 18.165,12.655 C18.278,12.226 18.278,11.774 18.165,11.345 C18.056,10.929 17.724,10.485 16.886,9.873 C16.05,9.262 14.842,8.574 13.155,7.616 C11.524,6.689 10.357,6.028 9.436,5.636 Z" />
</svg>